<svg xmlns="http://www.w3.org/2000/svg" xmlns:xlink="http://www.w3.org/1999/xlink" width="400" zoomAndPan="magnify" viewBox="0 0 300 299.999988" height="400" preserveAspectRatio="xMidYMid meet" version="1.0"><path fill="#ffffff" d="M 27.828125 244.882812 C 20.277344 225.183594 24.675781 197.757812 37.121094 186.917969 C 44.523438 180.46875 51.019531 167.457031 53.15625 154.789062 C 55.132812 143.078125 59.101562 132.042969 61.980469 130.261719 C 64.855469 128.480469 57.054688 121.324219 44.640625 114.355469 C 20.914062 101.035156 9.085938 88.980469 9.085938 78.121094 C 9.085938 74.449219 25.40625 81.691406 46.515625 94.722656 C 83.253906 117.410156 84.769531 117.832031 128.992188 117.832031 L 174.039062 117.832031 L 177.285156 134.09375 C 179.074219 143.035156 180.535156 158.460938 180.535156 168.371094 L 180.535156 186.386719 L 158.453125 183.050781 C 146.308594 181.214844 130.167969 178.53125 122.582031 177.085938 C 111.378906 174.949219 106.179688 177.882812 94.878906 192.726562 C 80.382812 211.753906 80.425781 225.546875 95.011719 237.667969 C 106.128906 246.910156 104.292969 253.113281 90.4375 253.113281 C 80.816406 253.113281 77.011719 248.90625 72.253906 232.996094 C 68.945312 221.933594 66.234375 207.777344 66.234375 201.535156 C 66.234375 190.417969 65.980469 190.375 53.410156 199.539062 C 38.8125 210.179688 35.464844 235.988281 48.050781 240.824219 C 60.132812 245.46875 57.246094 253.113281 43.414062 253.113281 C 36.574219 253.113281 29.5625 249.410156 27.828125 244.882812 Z M 190.101562 249.210938 C 189.652344 247.066406 189.066406 217.777344 188.804688 184.121094 C 188.28125 116.835938 186.703125 118.871094 222.085938 141.242188 C 238.054688 151.335938 242.253906 156.546875 238.289062 161.332031 C 230.726562 170.457031 245.828125 227.316406 258.738281 238.34375 C 272.585938 250.164062 271.433594 254.109375 254.699219 252.160156 C 242.949219 250.796875 238.953125 246.097656 231.15625 224.5 C 225.988281 210.191406 220.40625 194.972656 218.742188 190.679688 C 216.675781 185.335938 213.578125 188.617188 208.914062 201.085938 C 199.449219 226.40625 199.828125 237.832031 210.40625 245.875 C 218.671875 252.160156 218.203125 252.800781 205.210938 252.953125 C 197.355469 253.042969 190.554688 251.359375 190.101562 249.214844 Z M 223.328125 130.4375 C 208.363281 121.46875 202.464844 114.988281 205.144531 110.464844 C 213.292969 96.695312 235.578125 72.933594 242.992188 70.105469 C 254.023438 65.894531 274.050781 74.53125 274.050781 83.5 C 274.050781 87.691406 278.609375 92.570312 284.175781 94.339844 C 298.75 98.972656 291.476562 112.632812 274.4375 112.632812 C 263.921875 112.632812 258.464844 116.574219 252.914062 128.171875 L 245.476562 143.710938 Z M 163.523438 90.519531 C 140.230469 50.292969 133.761719 35.210938 138.527344 32.261719 C 142.273438 29.945312 185.730469 101.914062 185.730469 110.433594 C 185.730469 119.285156 174.183594 108.929688 163.523438 90.523438 Z M 163.523438 90.519531 " fill-opacity="1" fill-rule="nonzero"/></svg>