<svg xmlns="http://www.w3.org/2000/svg" xmlns:xlink="http://www.w3.org/1999/xlink" width="3779" zoomAndPan="magnify" viewBox="0 0 2835 2834.999876" height="3779" preserveAspectRatio="xMidYMid meet" version="1.0"><path fill="#ffffff" d="M 262.960938 2310.851562 C 191.621094 2124.96875 233.171875 1866.21875 350.777344 1763.949219 C 420.757812 1703.109375 482.132812 1580.339844 502.332031 1460.816406 C 521 1350.335938 558.511719 1246.199219 585.691406 1229.402344 C 612.871094 1212.601562 539.144531 1145.074219 421.859375 1079.335938 C 197.632812 953.652344 85.875 839.941406 85.875 737.472656 C 85.875 702.851562 240.070312 771.148438 439.554688 894.121094 C 786.746094 1108.15625 801.050781 1112.15625 1218.9375 1112.15625 L 1644.640625 1112.15625 L 1675.324219 1265.558594 C 1692.199219 1349.933594 1706.007812 1495.460938 1706.007812 1588.957031 L 1706.007812 1758.949219 L 1497.355469 1727.460938 C 1382.59375 1710.140625 1230.058594 1684.820312 1158.378906 1671.183594 C 1052.5 1651.046875 1003.394531 1678.722656 896.578125 1818.746094 C 759.621094 1998.289062 760.007812 2128.40625 897.839844 2242.785156 C 1002.90625 2329.972656 985.550781 2388.476562 854.617188 2388.476562 C 763.6875 2388.476562 727.757812 2348.796875 682.785156 2198.699219 C 651.507812 2094.320312 625.917969 1960.746094 625.917969 1901.871094 C 625.917969 1796.957031 623.5 1796.582031 504.722656 1883.019531 C 366.777344 1983.402344 335.128906 2226.90625 454.085938 2272.550781 C 568.242188 2316.347656 540.964844 2388.476562 410.242188 2388.476562 C 345.625 2388.476562 279.34375 2353.535156 262.957031 2310.828125 Z M 1796.441406 2351.683594 C 1792.164062 2331.4375 1786.644531 2055.085938 1784.167969 1737.578125 C 1779.214844 1102.753906 1764.296875 1121.949219 2098.65625 1333.003906 C 2249.5625 1428.257812 2289.261719 1477.398438 2251.78125 1522.558594 C 2180.339844 1608.628906 2323.035156 2145.109375 2445.039062 2249.128906 C 2575.878906 2360.671875 2564.988281 2397.878906 2406.875 2379.515625 C 2295.824219 2366.617188 2258.050781 2322.308594 2184.367188 2118.535156 C 2135.554688 1983.539062 2082.78125 1839.953125 2067.085938 1799.457031 C 2047.550781 1749.039062 2018.265625 1779.996094 1974.210938 1897.632812 C 1884.75 2136.53125 1888.351562 2244.3125 1988.316406 2320.195312 C 2066.421875 2379.480469 2061.960938 2385.546875 1939.222656 2386.964844 C 1864.96875 2387.824219 1800.714844 2371.960938 1796.441406 2351.710938 Z M 2110.394531 1231.074219 C 1968.992188 1146.464844 1913.238281 1085.320312 1938.5625 1042.617188 C 2015.578125 912.726562 2226.164062 688.53125 2296.226562 661.839844 C 2400.484375 622.125 2589.734375 703.609375 2589.734375 788.214844 C 2589.734375 827.765625 2632.789062 873.789062 2685.417969 890.488281 C 2823.125 934.1875 2754.398438 1063.097656 2593.390625 1063.097656 C 2494.023438 1063.097656 2442.441406 1100.273438 2389.988281 1209.707031 L 2319.714844 1356.316406 L 2110.398438 1231.074219 Z M 1545.261719 854.464844 C 1325.140625 474.925781 1264.007812 332.648438 1309.074219 304.8125 C 1344.449219 282.953125 1755.121094 961.972656 1755.121094 1042.332031 C 1755.121094 1125.847656 1646 1028.167969 1545.261719 854.476562 Z M 1545.261719 854.464844 " fill-opacity="1" fill-rule="nonzero"/></svg>