<svg xmlns="http://www.w3.org/2000/svg" xmlns:xlink="http://www.w3.org/1999/xlink" width="3779" zoomAndPan="magnify" viewBox="0 0 2835 2834.999876" height="3779" preserveAspectRatio="xMidYMid meet" version="1.0"><defs><g/></defs><path fill="#ffffff" d="M 58.769531 1788.261719 C 36.109375 1729.324219 49.308594 1647.28125 86.667969 1614.855469 C 108.898438 1595.5625 128.394531 1556.636719 134.8125 1518.738281 C 140.742188 1483.710938 152.660156 1450.691406 161.292969 1445.363281 C 169.925781 1440.039062 146.507812 1418.628906 109.25 1397.78125 C 38.019531 1357.933594 2.515625 1321.878906 2.515625 1289.386719 C 2.515625 1278.410156 51.5 1300.066406 114.871094 1339.054688 C 225.164062 1406.921875 229.707031 1408.1875 362.457031 1408.1875 L 497.691406 1408.1875 L 507.441406 1456.828125 C 512.800781 1483.582031 517.1875 1529.722656 517.1875 1559.367188 L 517.1875 1613.269531 L 450.902344 1603.285156 C 414.449219 1597.792969 365.992188 1589.765625 343.222656 1585.441406 C 309.585938 1579.054688 293.988281 1587.832031 260.054688 1632.230469 C 216.546875 1689.15625 216.667969 1730.414062 260.457031 1766.679688 C 293.832031 1794.324219 288.316406 1812.875 246.722656 1812.875 C 217.839844 1812.875 206.425781 1800.292969 192.136719 1752.699219 C 182.203125 1719.605469 174.070312 1677.253906 174.070312 1658.585938 C 174.070312 1625.320312 173.304688 1625.203125 135.570312 1652.609375 C 91.75 1684.4375 81.695312 1761.644531 119.484375 1776.117188 C 155.75 1790.003906 147.085938 1812.875 105.558594 1812.875 C 85.03125 1812.875 63.976562 1801.796875 58.769531 1788.253906 Z M 545.914062 1801.210938 C 544.558594 1794.789062 542.804688 1707.167969 542.015625 1606.492188 C 540.445312 1405.207031 535.703125 1411.292969 641.921875 1478.214844 C 689.859375 1508.414062 702.472656 1523.996094 690.566406 1538.316406 C 667.871094 1565.605469 713.199219 1735.710938 751.957031 1768.691406 C 793.523438 1804.058594 790.0625 1815.855469 739.835938 1810.03125 C 704.554688 1805.945312 692.554688 1791.894531 669.148438 1727.285156 C 653.644531 1684.480469 636.878906 1638.953125 631.890625 1626.113281 C 625.6875 1610.128906 616.382812 1619.941406 602.390625 1657.242188 C 573.96875 1732.988281 575.113281 1767.164062 606.871094 1791.222656 C 631.683594 1810.023438 630.265625 1811.945312 591.273438 1812.394531 C 567.683594 1812.667969 547.273438 1807.636719 545.914062 1801.214844 Z M 645.648438 1445.894531 C 600.730469 1419.066406 583.019531 1399.679688 591.0625 1386.140625 C 615.527344 1344.957031 682.425781 1273.867188 704.683594 1265.40625 C 737.804688 1252.8125 797.921875 1278.652344 797.921875 1305.476562 C 797.921875 1318.015625 811.601562 1332.609375 828.320312 1337.90625 C 872.066406 1351.761719 850.234375 1392.632812 799.085938 1392.632812 C 767.519531 1392.632812 751.132812 1404.421875 734.46875 1439.121094 L 712.144531 1485.605469 L 645.652344 1445.894531 Z M 466.121094 1326.484375 C 396.195312 1206.140625 376.777344 1161.027344 391.09375 1152.203125 C 402.332031 1145.273438 532.789062 1360.570312 532.789062 1386.050781 C 532.789062 1412.53125 498.125 1381.558594 466.121094 1326.484375 Z M 466.121094 1326.484375 " fill-opacity="1" fill-rule="nonzero"/><g fill="#ffffff" fill-opacity="1"><g transform="translate(804.200594, 1814.421496)"><g><path d="M 1.359375 0 L 32.722656 0 L 45.175781 -34.757812 L 107.332031 -34.757812 L 119.675781 0 L 150.695312 0 L 86.953125 -159.980469 L 65.441406 -159.980469 Z M 54.910156 -59.328125 L 76.3125 -117.75 L 97.597656 -59.328125 Z M 54.910156 -59.328125 "/></g></g></g><g fill="#ffffff" fill-opacity="1"><g transform="translate(956.248573, 1814.421496)"><g><path d="M 1.132812 0 L 34.757812 0 L 58.195312 -38.042969 L 81.632812 0 L 115.484375 0 L 76.539062 -57.0625 L 115.484375 -113.109375 L 81.632812 -113.109375 L 58.195312 -75.859375 L 34.757812 -113.109375 L 1.132812 -113.109375 L 39.855469 -57.0625 Z M 1.132812 0 "/></g></g></g><g fill="#ffffff" fill-opacity="1"><g transform="translate(1072.860165, 1814.421496)"><g><path d="M 63.515625 2.265625 C 82.539062 2.265625 97.597656 -4.414062 109.9375 -18.117188 L 90.917969 -34.757812 C 82.992188 -25.925781 73.933594 -22.757812 63.742188 -22.757812 C 45.96875 -22.757812 37.816406 -32.722656 35.4375 -47.554688 L 113.109375 -47.554688 C 113.671875 -49.136719 114.125 -53.78125 114.125 -58.421875 C 114.125 -83.671875 101.332031 -115.484375 61.707031 -115.484375 C 23.4375 -115.484375 6.226562 -85.59375 6.226562 -56.15625 C 6.226562 -25.699219 24.570312 2.265625 63.515625 2.265625 Z M 35.4375 -67.480469 C 38.042969 -81.632812 45.175781 -92.273438 61.480469 -92.273438 C 75.859375 -92.273438 85.140625 -83.671875 86.953125 -67.480469 Z M 35.4375 -67.480469 "/></g></g></g><g fill="#ffffff" fill-opacity="1"><g transform="translate(1193.660766, 1814.421496)"><g/></g></g><g fill="#ffffff" fill-opacity="1"><g transform="translate(1249.362615, 1814.421496)"><g><path d="M 20.605469 0.226562 L 49.363281 0.226562 L 49.363281 -68.386719 L 68.613281 -68.386719 L 108.011719 0.226562 L 140.960938 0.226562 L 96.464844 -71.214844 C 114.578125 -77.441406 127.714844 -92.726562 127.714844 -112.882812 C 127.714844 -142.882812 102.238281 -159.980469 72.347656 -159.980469 L 20.605469 -159.980469 Z M 49.589844 -91.820312 L 49.589844 -134.28125 L 72.574219 -134.28125 C 88.992188 -134.28125 99.292969 -125.675781 99.292969 -112.429688 C 99.292969 -100.425781 90.238281 -92.5 74.953125 -91.820312 Z M 49.589844 -91.820312 "/></g></g></g><g fill="#ffffff" fill-opacity="1"><g transform="translate(1392.919414, 1814.421496)"><g><path d="M 63.515625 2.265625 C 82.539062 2.265625 97.597656 -4.414062 109.9375 -18.117188 L 90.917969 -34.757812 C 82.992188 -25.925781 73.933594 -22.757812 63.742188 -22.757812 C 45.96875 -22.757812 37.816406 -32.722656 35.4375 -47.554688 L 113.109375 -47.554688 C 113.671875 -49.136719 114.125 -53.78125 114.125 -58.421875 C 114.125 -83.671875 101.332031 -115.484375 61.707031 -115.484375 C 23.4375 -115.484375 6.226562 -85.59375 6.226562 -56.15625 C 6.226562 -25.699219 24.570312 2.265625 63.515625 2.265625 Z M 35.4375 -67.480469 C 38.042969 -81.632812 45.175781 -92.273438 61.480469 -92.273438 C 75.859375 -92.273438 85.140625 -83.671875 86.953125 -67.480469 Z M 35.4375 -67.480469 "/></g></g></g><g fill="#ffffff" fill-opacity="1"><g transform="translate(1513.720015, 1814.421496)"><g><path d="M 16.644531 49.589844 L 44.722656 49.589844 L 44.722656 -11.320312 C 52.648438 -1.585938 65.101562 2.265625 76.988281 2.265625 C 108.238281 2.265625 125.449219 -25.25 125.449219 -56.609375 C 125.449219 -88.085938 108.238281 -115.484375 76.539062 -115.484375 C 64.421875 -115.484375 52.648438 -111.523438 44.722656 -101.785156 L 44.722656 -113.109375 L 16.644531 -113.109375 Z M 69.742188 -23.210938 C 50.835938 -23.210938 42.230469 -37.589844 42.230469 -56.609375 C 42.230469 -75.632812 50.835938 -90.691406 69.742188 -90.691406 C 88.765625 -90.691406 97.371094 -75.632812 97.371094 -56.609375 C 97.371094 -37.589844 88.765625 -23.210938 69.742188 -23.210938 Z M 69.742188 -23.210938 "/></g></g></g><g fill="#ffffff" fill-opacity="1"><g transform="translate(1646.294992, 1814.421496)"><g><path d="M 63.742188 2.265625 C 98.730469 2.265625 121.710938 -24.796875 121.710938 -56.835938 C 121.710938 -88.765625 98.730469 -115.484375 63.742188 -115.484375 C 28.757812 -115.484375 5.773438 -88.765625 5.773438 -56.835938 C 5.773438 -24.796875 28.757812 2.265625 63.742188 2.265625 Z M 63.742188 -21.511719 C 42.910156 -21.511719 34.53125 -38.269531 34.53125 -56.835938 C 34.53125 -75.40625 42.910156 -91.59375 63.742188 -91.59375 C 84.6875 -91.59375 92.953125 -75.40625 92.953125 -56.835938 C 92.953125 -38.269531 84.6875 -21.511719 63.742188 -21.511719 Z M 63.742188 -21.511719 "/></g></g></g><g fill="#ffffff" fill-opacity="1"><g transform="translate(1774.001667, 1814.421496)"><g><path d="M 16.417969 0 L 43.136719 0 L 43.136719 -47.777344 C 43.136719 -76.539062 56.609375 -88.539062 69.519531 -88.539062 C 73.933594 -88.539062 78.121094 -87.179688 81.859375 -84.6875 L 94.425781 -107.332031 C 88.992188 -112.882812 81.179688 -115.484375 73.707031 -115.484375 C 61.027344 -115.484375 48.230469 -107.785156 43.363281 -94.085938 L 43.363281 -113.109375 L 16.417969 -113.109375 Z M 16.417969 0 "/></g></g></g><g fill="#ffffff" fill-opacity="1"><g transform="translate(1866.272052, 1814.421496)"><g><path d="M 56.609375 2.265625 C 64.421875 2.265625 72.800781 0.453125 76.988281 -1.132812 L 76.988281 -26.152344 C 73.253906 -24.34375 67.027344 -22.078125 61.253906 -22.078125 C 54.007812 -22.078125 48.457031 -25.25 48.457031 -36.117188 L 48.457031 -90.011719 L 76.988281 -90.011719 L 76.988281 -113.109375 L 48.457031 -113.109375 L 48.457031 -160.886719 L 21.511719 -141.1875 L 21.511719 -113.109375 L 2.832031 -113.109375 L 2.832031 -90.011719 L 21.058594 -90.011719 L 21.058594 -31.25 C 21.058594 -10.644531 34.304688 2.265625 56.609375 2.265625 Z M 56.609375 2.265625 "/></g></g></g><g fill="#ffffff" fill-opacity="1"><g transform="translate(1951.636267, 1814.421496)"><g/></g></g><g fill="#ffffff" fill-opacity="1"><g transform="translate(2007.338116, 1814.421496)"><g><path d="M 86.726562 2.265625 C 108.011719 2.265625 125.449219 -7.472656 134.054688 -22.53125 L 136.542969 0 L 159.300781 0 L 159.300781 -86.5 L 95.105469 -86.5 L 95.105469 -63.289062 L 131.449219 -63.289062 C 128.277344 -38.949219 109.710938 -23.4375 86.726562 -23.4375 C 52.421875 -23.4375 37.816406 -49.363281 37.816406 -81.179688 C 37.816406 -110.84375 52.421875 -137.449219 86.273438 -137.449219 C 106.652344 -137.449219 123.410156 -127.714844 130.769531 -105.976562 L 156.246094 -116.617188 C 143.335938 -146.507812 117.976562 -162.585938 86.5 -162.585938 C 33.625 -162.585938 9.285156 -123.863281 9.285156 -80.046875 C 9.285156 -36.117188 34.078125 2.265625 86.726562 2.265625 Z M 86.726562 2.265625 "/></g></g></g><g fill="#ffffff" fill-opacity="1"><g transform="translate(2181.010142, 1814.421496)"><g><path d="M 54.234375 2.265625 C 67.707031 2.265625 79.480469 -2.605469 87.632812 -13.246094 L 87.632812 0 L 115.710938 0 L 115.710938 -113.109375 L 87.632812 -113.109375 L 87.632812 -62.160156 C 87.632812 -29.4375 74.386719 -22.757812 61.480469 -22.757812 C 44.722656 -22.757812 40.984375 -34.078125 40.984375 -52.648438 L 40.984375 -113.109375 L 13.019531 -113.109375 L 13.019531 -53.554688 C 13.019531 -19.472656 25.699219 2.265625 54.234375 2.265625 Z M 54.234375 2.265625 "/></g></g></g><g fill="#ffffff" fill-opacity="1"><g transform="translate(2313.132256, 1814.421496)"><g><path d="M 15.738281 -134.507812 L 44.496094 -134.507812 L 44.496094 -159.980469 L 15.738281 -159.980469 Z M 16.417969 0 L 43.816406 0 L 43.816406 -113.109375 L 16.417969 -113.109375 Z M 16.417969 0 "/></g></g></g><g fill="#ffffff" fill-opacity="1"><g transform="translate(2373.362709, 1814.421496)"><g><path d="M 87.859375 -159.980469 L 87.859375 -101.785156 C 80.046875 -111.523438 67.480469 -115.484375 55.703125 -115.484375 C 24.34375 -115.484375 7.132812 -87.859375 7.132812 -56.609375 C 7.132812 -25.023438 24.34375 2.265625 56.15625 2.265625 C 68.726562 2.265625 81.179688 -2.039062 88.992188 -12.679688 L 90.238281 0 L 115.9375 0 L 115.9375 -159.980469 Z M 62.835938 -22.757812 C 43.816406 -22.757812 35.210938 -37.589844 35.210938 -56.609375 C 35.210938 -75.40625 43.816406 -90.464844 62.835938 -90.464844 C 81.859375 -90.464844 90.238281 -75.632812 90.238281 -56.609375 C 90.238281 -37.363281 81.859375 -22.757812 62.835938 -22.757812 Z M 62.835938 -22.757812 "/></g></g></g><g fill="#ffffff" fill-opacity="1"><g transform="translate(2505.937593, 1814.421496)"><g><path d="M 63.515625 2.265625 C 82.539062 2.265625 97.597656 -4.414062 109.9375 -18.117188 L 90.917969 -34.757812 C 82.992188 -25.925781 73.933594 -22.757812 63.742188 -22.757812 C 45.96875 -22.757812 37.816406 -32.722656 35.4375 -47.554688 L 113.109375 -47.554688 C 113.671875 -49.136719 114.125 -53.78125 114.125 -58.421875 C 114.125 -83.671875 101.332031 -115.484375 61.707031 -115.484375 C 23.4375 -115.484375 6.226562 -85.59375 6.226562 -56.15625 C 6.226562 -25.699219 24.570312 2.265625 63.515625 2.265625 Z M 35.4375 -67.480469 C 38.042969 -81.632812 45.175781 -92.273438 61.480469 -92.273438 C 75.859375 -92.273438 85.140625 -83.671875 86.953125 -67.480469 Z M 35.4375 -67.480469 "/></g></g></g><g fill="#ffffff" fill-opacity="1"><g transform="translate(2626.701036, 1814.421496)"><g/></g></g></svg>