<svg xmlns="http://www.w3.org/2000/svg" xmlns:xlink="http://www.w3.org/1999/xlink" width="7559" zoomAndPan="magnify" viewBox="0 0 5669.25 1417.499962" height="1889" preserveAspectRatio="xMidYMid meet" version="1.0"><defs><g/><clipPath id="0eab37e03e"><path d="M 3226 1117 L 3452 1117 L 3452 1417 L 3226 1417 Z M 3226 1117 " clip-rule="nonzero"/></clipPath></defs><path fill="#ffffff" d="M 122.078125 1322.796875 C 75.242188 1200.734375 102.519531 1030.824219 179.726562 963.667969 C 225.667969 923.71875 265.960938 843.101562 279.222656 764.617188 C 291.476562 692.066406 316.101562 623.683594 333.945312 612.652344 C 351.789062 601.625 303.390625 557.28125 226.394531 514.113281 C 79.191406 431.582031 5.820312 356.914062 5.820312 289.625 C 5.820312 266.890625 107.050781 311.738281 238.007812 392.492188 C 465.933594 533.039062 475.328125 535.664062 749.664062 535.664062 L 1029.132812 535.664062 L 1049.277344 636.398438 C 1060.355469 691.804688 1069.421875 787.363281 1069.421875 848.757812 L 1069.421875 960.382812 L 932.441406 939.707031 C 857.105469 928.335938 756.964844 911.707031 709.910156 902.753906 C 640.402344 889.53125 608.164062 907.703125 538.039062 999.652344 C 448.128906 1117.550781 448.382812 1202.992188 538.871094 1278.097656 C 607.84375 1335.351562 596.449219 1373.769531 510.492188 1373.769531 C 450.796875 1373.769531 427.210938 1347.710938 397.6875 1249.148438 C 377.152344 1180.609375 360.355469 1092.898438 360.355469 1054.234375 C 360.355469 985.34375 358.765625 985.097656 280.789062 1041.859375 C 190.234375 1107.773438 169.453125 1267.671875 247.546875 1297.644531 C 322.488281 1326.40625 304.582031 1373.769531 218.765625 1373.769531 C 176.34375 1373.769531 132.832031 1350.824219 122.074219 1322.78125 Z M 1128.789062 1349.609375 C 1125.984375 1336.3125 1122.359375 1154.847656 1120.734375 946.351562 C 1117.484375 529.492188 1107.6875 542.09375 1327.191406 680.683594 C 1426.261719 743.234375 1452.320312 775.503906 1427.71875 805.15625 C 1380.816406 861.675781 1474.492188 1213.960938 1554.589844 1282.265625 C 1640.480469 1355.511719 1633.332031 1379.941406 1529.535156 1367.882812 C 1456.628906 1359.414062 1431.832031 1330.320312 1383.460938 1196.511719 C 1351.414062 1107.863281 1316.769531 1013.578125 1306.464844 986.984375 C 1293.640625 953.878906 1274.417969 974.207031 1245.496094 1051.453125 C 1186.765625 1208.328125 1189.128906 1279.101562 1254.753906 1328.929688 C 1306.03125 1367.859375 1303.101562 1371.84375 1222.523438 1372.777344 C 1173.777344 1373.339844 1131.597656 1362.921875 1128.789062 1349.625 Z M 1334.898438 613.753906 C 1242.066406 558.191406 1205.464844 518.042969 1222.089844 490 C 1272.648438 404.707031 1410.898438 257.488281 1456.894531 239.960938 C 1525.339844 213.882812 1649.578125 267.390625 1649.578125 322.945312 C 1649.578125 348.917969 1677.84375 379.136719 1712.394531 390.105469 C 1802.796875 418.800781 1757.679688 503.449219 1651.980469 503.449219 C 1586.746094 503.449219 1552.882812 527.863281 1518.449219 599.722656 L 1472.3125 695.992188 Z M 963.894531 366.449219 C 819.386719 117.222656 779.253906 23.792969 808.839844 5.515625 C 832.0625 -8.835938 1101.664062 437.046875 1101.664062 489.8125 C 1101.664062 544.65625 1030.027344 480.511719 963.894531 366.457031 Z M 963.894531 366.449219 " fill-opacity="1" fill-rule="nonzero"/><g fill="#ffffff" fill-opacity="1"><g transform="translate(1607.957878, 1356.548799)"><g/></g></g><g fill="#ffffff" fill-opacity="1"><g transform="translate(1723.082807, 1356.548799)"><g><path d="M 2.8125 0 L 67.734375 0 L 93.519531 -71.953125 L 222.195312 -71.953125 L 247.742188 0 L 311.960938 0 L 180.003906 -331.179688 L 135.472656 -331.179688 Z M 113.675781 -122.816406 L 157.972656 -243.757812 L 202.035156 -122.816406 Z M 113.675781 -122.816406 "/></g></g></g><g fill="#ffffff" fill-opacity="1"><g transform="translate(2037.841042, 1356.548799)"><g><path d="M 2.34375 0 L 71.953125 0 L 120.472656 -78.753906 L 168.988281 0 L 239.070312 0 L 158.441406 -118.128906 L 239.070312 -234.148438 L 168.988281 -234.148438 L 120.472656 -157.035156 L 71.953125 -234.148438 L 2.34375 -234.148438 L 82.503906 -118.128906 Z M 2.34375 0 "/></g></g></g><g fill="#ffffff" fill-opacity="1"><g transform="translate(2279.241546, 1356.548799)"><g><path d="M 131.488281 4.6875 C 170.863281 4.6875 202.035156 -9.140625 227.585938 -37.5 L 188.207031 -71.953125 C 171.800781 -53.671875 153.050781 -47.109375 131.957031 -47.109375 C 95.160156 -47.109375 78.285156 -67.734375 73.359375 -98.441406 L 234.148438 -98.441406 C 235.320312 -101.722656 236.257812 -111.332031 236.257812 -120.941406 C 236.257812 -173.207031 209.769531 -239.070312 127.738281 -239.070312 C 48.515625 -239.070312 12.890625 -177.191406 12.890625 -116.253906 C 12.890625 -53.203125 50.859375 4.6875 131.488281 4.6875 Z M 73.359375 -139.691406 C 78.753906 -168.988281 93.519531 -191.019531 127.269531 -191.019531 C 157.035156 -191.019531 176.253906 -173.207031 180.003906 -139.691406 Z M 73.359375 -139.691406 "/></g></g></g><g fill="#ffffff" fill-opacity="1"><g transform="translate(2529.313821, 1356.548799)"><g/></g></g><g fill="#ffffff" fill-opacity="1"><g transform="translate(2644.623578, 1356.548799)"><g><path d="M 42.65625 0.46875 L 102.191406 0.46875 L 102.191406 -141.566406 L 142.035156 -141.566406 L 223.601562 0.46875 L 291.804688 0.46875 L 199.691406 -147.425781 C 237.195312 -160.316406 264.382812 -191.957031 264.382812 -233.679688 C 264.382812 -295.789062 211.644531 -331.179688 149.769531 -331.179688 L 42.65625 -331.179688 Z M 102.660156 -190.082031 L 102.660156 -277.976562 L 150.238281 -277.976562 C 184.222656 -277.976562 205.550781 -260.164062 205.550781 -232.742188 C 205.550781 -207.894531 186.800781 -191.488281 155.160156 -190.082031 Z M 102.660156 -190.082031 "/></g></g></g><g fill="#ffffff" fill-opacity="1"><g transform="translate(2941.804012, 1356.548799)"><g><path d="M 131.488281 4.6875 C 170.863281 4.6875 202.035156 -9.140625 227.585938 -37.5 L 188.207031 -71.953125 C 171.800781 -53.671875 153.050781 -47.109375 131.957031 -47.109375 C 95.160156 -47.109375 78.285156 -67.734375 73.359375 -98.441406 L 234.148438 -98.441406 C 235.320312 -101.722656 236.257812 -111.332031 236.257812 -120.941406 C 236.257812 -173.207031 209.769531 -239.070312 127.738281 -239.070312 C 48.515625 -239.070312 12.890625 -177.191406 12.890625 -116.253906 C 12.890625 -53.203125 50.859375 4.6875 131.488281 4.6875 Z M 73.359375 -139.691406 C 78.753906 -168.988281 93.519531 -191.019531 127.269531 -191.019531 C 157.035156 -191.019531 176.253906 -173.207031 180.003906 -139.691406 Z M 73.359375 -139.691406 "/></g></g></g><g clip-path="url(#0eab37e03e)"><g fill="#ffffff" fill-opacity="1"><g transform="translate(3191.876287, 1356.548799)"><g><path d="M 34.453125 102.660156 L 92.582031 102.660156 L 92.582031 -23.4375 C 108.988281 -3.28125 134.769531 4.6875 159.378906 4.6875 C 224.070312 4.6875 259.695312 -52.265625 259.695312 -117.191406 C 259.695312 -182.347656 224.070312 -239.070312 158.441406 -239.070312 C 133.363281 -239.070312 108.988281 -230.867188 92.582031 -210.707031 L 92.582031 -234.148438 L 34.453125 -234.148438 Z M 144.378906 -48.046875 C 105.238281 -48.046875 87.425781 -77.816406 87.425781 -117.191406 C 87.425781 -156.566406 105.238281 -187.738281 144.378906 -187.738281 C 183.753906 -187.738281 201.566406 -156.566406 201.566406 -117.191406 C 201.566406 -77.816406 183.753906 -48.046875 144.378906 -48.046875 Z M 144.378906 -48.046875 "/></g></g></g></g><g fill="#ffffff" fill-opacity="1"><g transform="translate(3466.322984, 1356.548799)"><g><path d="M 131.957031 4.6875 C 204.378906 4.6875 251.960938 -51.328125 251.960938 -117.660156 C 251.960938 -183.753906 204.378906 -239.070312 131.957031 -239.070312 C 59.53125 -239.070312 11.953125 -183.753906 11.953125 -117.660156 C 11.953125 -51.328125 59.53125 4.6875 131.957031 4.6875 Z M 131.957031 -44.53125 C 88.832031 -44.53125 71.484375 -79.222656 71.484375 -117.660156 C 71.484375 -156.097656 88.832031 -189.613281 131.957031 -189.613281 C 175.316406 -189.613281 192.425781 -156.097656 192.425781 -117.660156 C 192.425781 -79.222656 175.316406 -44.53125 131.957031 -44.53125 Z M 131.957031 -44.53125 "/></g></g></g><g fill="#ffffff" fill-opacity="1"><g transform="translate(3730.69169, 1356.548799)"><g><path d="M 33.984375 0 L 89.300781 0 L 89.300781 -98.910156 C 89.300781 -158.441406 117.191406 -183.285156 143.910156 -183.285156 C 153.050781 -183.285156 161.722656 -180.472656 169.457031 -175.316406 L 195.472656 -222.195312 C 184.222656 -233.679688 168.050781 -239.070312 152.582031 -239.070312 C 126.332031 -239.070312 99.847656 -223.132812 89.769531 -194.769531 L 89.769531 -234.148438 L 33.984375 -234.148438 Z M 33.984375 0 "/></g></g></g><g fill="#ffffff" fill-opacity="1"><g transform="translate(3921.702869, 1356.548799)"><g><path d="M 117.191406 4.6875 C 133.363281 4.6875 150.707031 0.9375 159.378906 -2.34375 L 159.378906 -54.140625 C 151.644531 -50.390625 138.753906 -45.703125 126.800781 -45.703125 C 111.800781 -45.703125 100.316406 -52.265625 100.316406 -74.769531 L 100.316406 -186.332031 L 159.378906 -186.332031 L 159.378906 -234.148438 L 100.316406 -234.148438 L 100.316406 -333.054688 L 44.53125 -292.273438 L 44.53125 -234.148438 L 5.859375 -234.148438 L 5.859375 -186.332031 L 43.59375 -186.332031 L 43.59375 -64.6875 C 43.59375 -22.03125 71.015625 4.6875 117.191406 4.6875 Z M 117.191406 4.6875 "/></g></g></g><g fill="#ffffff" fill-opacity="1"><g transform="translate(4098.417415, 1356.548799)"><g/></g></g><g fill="#ffffff" fill-opacity="1"><g transform="translate(4213.727172, 1356.548799)"><g><path d="M 179.535156 4.6875 C 223.601562 4.6875 259.695312 -15.46875 277.507812 -46.640625 L 282.664062 0 L 329.773438 0 L 329.773438 -179.066406 L 196.878906 -179.066406 L 196.878906 -131.019531 L 272.117188 -131.019531 C 265.554688 -80.628906 227.117188 -48.515625 179.535156 -48.515625 C 108.519531 -48.515625 78.285156 -102.191406 78.285156 -168.050781 C 78.285156 -229.460938 108.519531 -284.539062 178.597656 -284.539062 C 220.785156 -284.539062 255.476562 -264.382812 270.710938 -219.378906 L 323.445312 -241.414062 C 296.726562 -303.289062 244.226562 -336.570312 179.066406 -336.570312 C 69.609375 -336.570312 19.21875 -256.414062 19.21875 -165.707031 C 19.21875 -74.769531 70.546875 4.6875 179.535156 4.6875 Z M 179.535156 4.6875 "/></g></g></g><g fill="#ffffff" fill-opacity="1"><g transform="translate(4573.249875, 1356.548799)"><g><path d="M 112.269531 4.6875 C 140.160156 4.6875 164.535156 -5.390625 181.410156 -27.421875 L 181.410156 0 L 239.539062 0 L 239.539062 -234.148438 L 181.410156 -234.148438 L 181.410156 -128.675781 C 181.410156 -60.9375 153.988281 -47.109375 127.269531 -47.109375 C 92.582031 -47.109375 84.847656 -70.546875 84.847656 -108.988281 L 84.847656 -234.148438 L 26.953125 -234.148438 L 26.953125 -110.863281 C 26.953125 -40.3125 53.203125 4.6875 112.269531 4.6875 Z M 112.269531 4.6875 "/></g></g></g><g fill="#ffffff" fill-opacity="1"><g transform="translate(4846.759088, 1356.548799)"><g><path d="M 32.578125 -278.445312 L 92.113281 -278.445312 L 92.113281 -331.179688 L 32.578125 -331.179688 Z M 33.984375 0 L 90.707031 0 L 90.707031 -234.148438 L 33.984375 -234.148438 Z M 33.984375 0 "/></g></g></g><g fill="#ffffff" fill-opacity="1"><g transform="translate(4971.443621, 1356.548799)"><g><path d="M 181.878906 -331.179688 L 181.878906 -210.707031 C 165.707031 -230.867188 139.691406 -239.070312 115.316406 -239.070312 C 50.390625 -239.070312 14.765625 -181.878906 14.765625 -117.191406 C 14.765625 -51.796875 50.390625 4.6875 116.253906 4.6875 C 142.269531 4.6875 168.050781 -4.21875 184.222656 -26.25 L 186.800781 0 L 240.007812 0 L 240.007812 -331.179688 Z M 130.082031 -47.109375 C 90.707031 -47.109375 72.890625 -77.816406 72.890625 -117.191406 C 72.890625 -156.097656 90.707031 -187.269531 130.082031 -187.269531 C 169.457031 -187.269531 186.800781 -156.566406 186.800781 -117.191406 C 186.800781 -77.347656 169.457031 -47.109375 130.082031 -47.109375 Z M 130.082031 -47.109375 "/></g></g></g><g fill="#ffffff" fill-opacity="1"><g transform="translate(5245.890125, 1356.548799)"><g><path d="M 131.488281 4.6875 C 170.863281 4.6875 202.035156 -9.140625 227.585938 -37.5 L 188.207031 -71.953125 C 171.800781 -53.671875 153.050781 -47.109375 131.957031 -47.109375 C 95.160156 -47.109375 78.285156 -67.734375 73.359375 -98.441406 L 234.148438 -98.441406 C 235.320312 -101.722656 236.257812 -111.332031 236.257812 -120.941406 C 236.257812 -173.207031 209.769531 -239.070312 127.738281 -239.070312 C 48.515625 -239.070312 12.890625 -177.191406 12.890625 -116.253906 C 12.890625 -53.203125 50.859375 4.6875 131.488281 4.6875 Z M 73.359375 -139.691406 C 78.753906 -168.988281 93.519531 -191.019531 127.269531 -191.019531 C 157.035156 -191.019531 176.253906 -173.207031 180.003906 -139.691406 Z M 73.359375 -139.691406 "/></g></g></g><g fill="#ffffff" fill-opacity="1"><g transform="translate(5495.885541, 1356.548799)"><g/></g></g></svg>